PathFileType	4	(x/y/z)	S06_PSF_T04
DataRate	CameraRate	NumFrames	NumMarkers	Units	OrigDataRate	OrigDataStartFrame	OrigNumFrames
240	240	10	51	mm	240	155	411
Frame#	Time	Sternum			R.Acromium			L.Acromium			Top.Head			R.ASIS			L.ASIS			R.PSIS			L.PSIS			R.Great.Tro			L.Great.Tro			R.Iliac.Crest			L.Iliac.Crest			V.Sacral			R.Thigh.Upper.Post			R.Thigh.Lower.Ant			R.Thigh.Lower.Post			R.Thigh.Upper.Ant			R.Knee.Lat			R.Knee.Med			R.Shank.Upper.Post			R.Shank.Lower.Ant			R.Shank.Lower.Post			R.Shank.Upper.Ant			R.Ankle.Lat			R.Ankle.Med			R.Heel.Upper			R.Heel.Med			R.Heel.Lat			R.Toe.Lat			R.Toe.Med			R.Toe.Tip			L.Thigh.Upper.Post			L.Thigh.Lower.Ant			L.Thigh.Lower.Post			L.Thigh.Upper.Ant			L.Knee.Lat			L.Knee.Med			L.Shank.Upper.Post			L.Shank.Lower.Ant			L.Shank.Lower.Post			L.Shank.Upper.Ant			L.Ankle.Lat			L.Ankle.Med			L.Heel.Upper			L.Heel.Med			L.Heel.Lat			L.Toe.Lat			L.Toe.Med			L.Toe.Tip			Cervical.Spine			Back			
		X1	Y1	Z1	X2	Y2	Z2	X3	Y3	Z3	X4	Y4	Z4	X5	Y5	Z5	X6	Y6	Z6	X7	Y7	Z7	X8	Y8	Z8	X9	Y9	Z9	X10	Y10	Z10	X11	Y11	Z11	X12	Y12	Z12	X13	Y13	Z13	X14	Y14	Z14	X15	Y15	Z15	X16	Y16	Z16	X17	Y17	Z17	X18	Y18	Z18	X19	Y19	Z19	X20	Y20	Z20	X21	Y21	Z21	X22	Y22	Z22	X23	Y23	Z23	X24	Y24	Z24	X25	Y25	Z25	X26	Y26	Z26	X27	Y27	Z27	X28	Y28	Z28	X29	Y29	Z29	X30	Y30	Z30	X31	Y31	Z31	X32	Y32	Z32	X33	Y33	Z33	X34	Y34	Z34	X35	Y35	Z35	X36	Y36	Z36	X37	Y37	Z37	X38	Y38	Z38	X39	Y39	Z39	X40	Y40	Z40	X41	Y41	Z41	X42	Y42	Z42	X43	Y43	Z43	X44	Y44	Z44	X45	Y45	Z45	X46	Y46	Z46	X47	Y47	Z47	X48	Y48	Z48	X49	Y49	Z49	X50	Y50	Z50	X51	Y51	Z51	

155	0.64167	-699.18	1272.8	349.27	-838.89	1475.5	514.15	-835.76	1479	162.87	-790.34	1796.1	342.17	-746.16	1037.1	470.01	-735.19	1032.9	216.75	NaN	NaN	NaN	-942.67	1058.4	293.69	-798.94	959.07	518.08	-845.31	963.89	161.87	-838.23	1109.1	500.54	-807.91	1106.7	180.53	-958.35	1021.1	335.97	-735.62	719.13	495.73	-654.89	658.32	456.54	-719.46	633.17	467.93	-664.05	746.09	480.27	-664.33	538.29	453.15	-657.85	549.28	324.53	-651.24	307.71	439.36	-575.24	261.12	420.92	-635.52	232.65	421.01	-592.99	334.43	437.02	-567.56	114.23	394.41	-550.2	133.39	311.84	-611.35	62.536	338.58	-591.27	36.857	308.67	-596.69	32.539	372.83	-427.92	71.883	426.95	-401.59	98.258	312.83	-347.13	130.86	363.53	-849.47	709.61	185.66	-815.67	618.21	238.23	-885.93	627.59	202.69	-783.3	705.54	215.43	-934.01	537.57	222.25	-897.73	535.17	339.9	-1080	354.37	240.33	-1052.9	269.91	244.31	-1119.4	294.12	260.69	-1019.4	330.5	230.18	-1146.6	150.21	265.89	-1125.9	165.94	352.79	-1235.5	138.65	309.16	-1241.5	111.26	340.83	-1236.9	112.41	279.16	-1070.5	46.238	248.04	-1057.3	45.887	368.31	-983.53	42.038	317.87	-890.99	1529.9	337.22	-942.91	1255.9	333.25
156	0.64583	-693.52	1273.1	349.72	-833.53	1475.5	514.58	-830.15	1479	163.27	-784.99	1796.2	342.46	-740.08	1037.2	470.27	-729.21	1033	217.08	NaN	NaN	NaN	-936.54	1058.4	293.91	-792.8	959.09	518.24	-839.23	963.9	162.11	-832.25	1109.1	500.84	-801.88	1106.8	180.79	-952.52	1021.1	336.18	-729.8	719.08	495.61	-649.51	658.04	456.49	-714.16	633.1	467.92	-658.27	745.89	480.26	-659.35	538.03	453.16	-653.26	548.92	324.55	-647.52	307.35	439.3	-571.93	260.24	420.57	-632.42	232.19	420.95	-589.1	333.66	436.71	-565.61	113.46	394.21	-548.34	132.31	311.44	-610.32	62.995	338.48	-590.93	36.794	308.58	-596.25	32.818	372.78	-426.65	69.503	426.2	-400.32	95.033	311.95	-345.08	126.95	362.33	-842.75	709.43	185.32	-808.48	618.01	237.5	-878.83	627.21	202.14	-776.43	705.53	214.86	-926.85	537.22	221.64	-889.91	534.39	339.13	-1074.9	355.77	240.02	-1048.8	271.03	243.59	-1114.9	296.04	260.31	-1014.5	331.23	229.41	-1143.7	152.27	265.33	-1122.8	167.84	352.07	-1232.5	142.37	308.81	-1239.1	115.46	340.75	-1234.7	116.14	279.06	-1069.9	46.335	248.03	-1056.7	46.392	368.25	-983.39	41.876	317.92	-885.59	1529.8	337.58	-937.16	1255.8	333.54
157	0.65	-687.85	1273.4	350.15	-828.14	1475.6	515.03	-824.55	1479.1	163.68	-779.64	1796.3	342.75	-733.98	1037.4	470.51	-723.24	1033.2	217.39	NaN	NaN	NaN	-930.4	1058.5	294.15	-786.63	959.16	518.41	-833.14	963.93	162.35	-826.24	1109.1	501.13	-795.86	1106.9	181.05	-946.64	1021.2	336.42	-723.99	719.05	495.55	-644.16	657.8	456.49	-708.89	633.06	467.98	-652.51	745.73	480.31	-654.39	537.8	453.22	-648.8	548.57	324.59	-643.81	307.04	439.34	-568.63	259.42	420.29	-629.31	231.77	420.98	-585.21	332.95	436.47	-563.67	112.74	394.1	-546.51	131.3	311.14	-609.28	63.5	338.44	-590.57	36.817	308.53	-595.79	33.132	372.76	-425.44	67.147	425.54	-399.07	91.896	311.17	-343.07	123.08	361.26	-835.89	709.23	184.95	-801.09	617.82	236.72	-871.55	626.81	201.54	-769.42	705.54	214.24	-919.47	536.85	220.96	-881.84	533.57	338.28	-1069.6	357.21	239.66	-1044.5	272.2	242.79	-1110.3	298.01	259.88	-1009.4	331.99	228.58	-1140.6	154.4	264.71	-1119.6	169.8	351.28	-1229.2	146.26	308.4	-1236.4	119.86	340.63	-1232.2	120.04	278.91	-1069.3	46.462	248.02	-1056.1	46.937	368.18	-983.25	41.701	317.97	-880.2	1529.8	337.95	-931.39	1255.7	333.85
158	0.65417	-682.17	1273.7	350.57	-822.74	1475.7	515.47	-818.94	1479.2	164.08	-774.27	1796.5	343.05	-727.88	1037.6	470.73	-717.27	1033.5	217.69	NaN	NaN	NaN	-924.27	1058.6	294.41	-780.44	959.3	518.59	-827.03	963.95	162.6	-820.21	1109.2	501.43	-789.87	1107.1	181.31	-940.71	1021.3	336.67	-718.16	719.06	495.56	-638.83	657.6	456.55	-703.65	633.05	468.11	-646.76	745.62	480.42	-649.43	537.62	453.33	-644.45	548.22	324.67	-640.1	306.77	439.46	-565.36	258.65	420.09	-626.21	231.41	421.12	-581.35	332.28	436.3	-561.76	112.09	394.05	-544.7	130.36	310.91	-608.25	64.038	338.45	-590.2	36.917	308.51	-595.32	33.47	372.78	-424.29	64.825	424.96	-397.84	88.862	310.49	-341.11	119.28	360.33	-828.88	709.02	184.54	-793.52	617.62	235.87	-864.09	626.38	200.9	-762.26	705.56	213.58	-911.88	536.45	220.21	-873.51	532.69	337.34	-1064.1	358.69	239.23	-1040	273.41	241.92	-1105.4	300.03	259.39	-1004.1	332.78	227.66	-1137.3	156.59	264.01	-1116.1	171.83	350.42	-1225.7	150.33	307.93	-1233.4	124.46	340.44	-1229.5	124.13	278.7	-1068.7	46.627	248.01	-1055.5	47.531	368.09	-983.09	41.51	318.02	-874.8	1529.9	338.34	-925.62	1255.7	334.18
159	0.65833	-676.48	1274.1	350.96	-817.31	1475.8	515.92	-813.34	1479.3	164.5	-768.9	1796.7	343.35	-721.77	1037.9	470.95	-711.32	1033.7	217.97	NaN	NaN	NaN	-918.16	1058.7	294.68	-774.25	959.49	518.79	-820.92	963.99	162.85	-814.16	1109.3	501.73	-783.89	1107.4	181.56	-934.73	1021.4	336.95	-712.33	719.1	495.63	-633.51	657.45	456.68	-698.42	633.09	468.31	-641.01	745.57	480.57	-644.46	537.47	453.48	-640.2	547.88	324.78	-636.43	306.54	439.67	-562.12	257.93	419.95	-623.14	231.09	421.35	-577.51	331.66	436.19	-559.89	111.48	394.07	-542.92	129.5	310.76	-607.22	64.598	338.5	-589.82	37.083	308.51	-594.86	33.822	372.83	-423.21	62.548	424.46	-396.64	85.943	309.92	-339.22	115.55	359.53	-821.74	708.8	184.09	-785.76	617.42	234.96	-856.45	625.92	200.21	-754.96	705.6	212.88	-904.05	536.01	219.4	-864.94	531.75	336.32	-1058.3	360.2	238.74	-1035.2	274.67	240.98	-1100.2	302.1	258.85	-998.54	333.6	226.68	-1133.8	158.85	263.24	-1112.5	173.93	349.49	-1221.9	154.57	307.36	-1230.2	129.28	340.17	-1226.6	128.41	278.4	-1067.9	46.843	247.97	-1054.7	48.184	367.98	-982.92	41.301	318.08	-869.4	1529.9	338.75	-919.84	1255.7	334.53
160	0.6625	-670.78	1274.5	351.34	-811.86	1475.9	516.37	-807.74	1479.5	164.91	-763.53	1796.9	343.65	-715.66	1038.2	471.14	-705.38	1034	218.25	NaN	NaN	NaN	-912.06	1058.8	294.96	-768.06	959.76	519	-814.8	964.02	163.1	-808.1	1109.5	502.03	-777.95	1107.6	181.82	-928.71	1021.6	337.26	-706.49	719.19	495.77	-628.2	657.37	456.87	-693.18	633.17	468.59	-635.27	745.59	480.79	-639.49	537.38	453.68	-636.02	547.56	324.94	-632.8	306.35	439.95	-558.93	257.26	419.89	-620.11	230.82	421.65	-573.72	331.09	436.16	-558.08	110.93	394.15	-541.19	128.71	310.69	-606.2	65.169	338.59	-589.42	37.306	308.55	-594.39	34.181	372.9	-422.2	60.327	424.04	-395.48	83.149	309.43	-337.4	111.92	358.85	-814.45	708.55	183.6	-777.8	617.21	233.99	-848.62	625.43	199.47	-747.51	705.66	212.14	-896	535.54	218.51	-856.11	530.76	335.21	-1052.2	361.75	238.17	-1030.3	275.96	239.95	-1094.8	304.21	258.24	-992.76	334.44	225.61	-1130	161.17	262.39	-1108.5	176.1	348.49	-1217.8	158.99	306.71	-1226.6	134.31	339.81	-1223.3	132.89	278	-1067.2	47.122	247.92	-1053.9	48.907	367.84	-982.72	41.072	318.12	-864	1530	339.17	-914.06	1255.8	334.9
161	0.66667	-665.09	1275	351.7	-806.39	1476.1	516.83	-802.15	1479.7	165.32	-758.16	1797.1	343.96	-709.56	1038.6	471.33	-699.47	1034.4	218.52	NaN	NaN	NaN	-905.99	1059	295.24	-761.88	960.08	519.23	-808.69	964.05	163.36	-802.04	1109.8	502.33	-772.04	1107.9	182.08	-922.64	1021.8	337.57	-700.64	719.32	495.99	-622.89	657.37	457.11	-687.95	633.31	468.94	-629.53	745.69	481.06	-634.51	537.33	453.92	-631.89	547.27	325.14	-629.22	306.2	440.3	-555.79	256.64	419.9	-617.14	230.6	422.04	-569.99	330.56	436.2	-556.32	110.42	394.28	-539.5	127.99	310.67	-605.21	65.741	338.72	-589.02	37.576	308.6	-593.93	34.539	372.98	-421.25	58.172	423.7	-394.36	80.488	309.03	-335.65	108.39	358.28	-807.02	708.29	183.08	-769.65	617	232.96	-840.61	624.91	198.69	-739.92	705.72	211.36	-887.71	535.04	217.55	-847.03	529.71	334.02	-1045.9	363.34	237.51	-1025.1	277.3	238.84	-1089.2	306.37	257.55	-986.74	335.31	224.47	-1126	163.56	261.45	-1104.4	178.34	347.42	-1213.4	163.59	305.94	-1222.8	139.56	339.33	-1219.8	137.55	277.49	-1066.3	47.479	247.84	-1053.1	49.714	367.66	-982.5	40.82	318.16	-858.59	1530.1	339.6	-908.27	1255.8	335.28
162	0.67083	-659.39	1275.4	352.04	-800.9	1476.3	517.28	-796.57	1479.9	165.73	-752.79	1797.4	344.26	-703.48	1039	471.51	-693.59	1034.7	218.78	NaN	NaN	NaN	-899.95	1059.2	295.53	-755.72	960.47	519.48	-802.58	964.07	163.62	-795.98	1110	502.63	-766.16	1108.2	182.33	-916.55	1022	337.91	-694.8	719.51	496.28	-617.57	657.44	457.42	-682.7	633.5	469.36	-623.8	745.86	481.39	-629.53	537.32	454.21	-627.78	547.02	325.39	-625.7	306.08	440.7	-552.72	256.06	419.97	-614.22	230.43	422.49	-566.32	330.06	436.31	-554.63	109.96	394.45	-537.88	127.35	310.72	-604.25	66.307	338.87	-588.62	37.883	308.67	-593.48	34.891	373.08	-420.37	56.094	423.42	-393.29	77.966	308.7	-334	104.99	357.81	-799.45	708	182.52	-761.31	616.78	231.87	-832.42	624.35	197.86	-732.19	705.79	210.55	-879.19	534.5	216.52	-837.7	528.6	332.74	-1039.3	364.94	236.77	-1019.6	278.67	237.64	-1083.2	308.56	256.78	-980.46	336.19	223.26	-1121.8	166.03	260.42	-1100	180.65	346.28	-1208.7	168.36	305.05	-1218.7	145.01	338.71	-1216	142.41	276.85	-1065.3	47.929	247.72	-1052.1	50.618	367.44	-982.23	40.544	318.18	-853.19	1530.2	340.04	-902.5	1255.9	335.68
163	0.675	-653.7	1275.9	352.36	-795.39	1476.6	517.74	-791	1480.1	166.14	-747.43	1797.6	344.57	-697.43	1039.4	471.69	-687.75	1035.1	219.04	NaN	NaN	NaN	-893.94	1059.4	295.83	-749.6	960.92	519.74	-796.49	964.08	163.88	-789.94	1110.4	502.92	-760.32	1108.6	182.58	-910.43	1022.2	338.26	-688.96	719.75	496.64	-612.24	657.59	457.79	-677.44	633.74	469.86	-618.07	746.11	481.76	-624.56	537.35	454.54	-623.67	546.81	325.7	-622.26	306	441.17	-549.73	255.53	420.1	-611.37	230.29	422.99	-562.73	329.6	436.48	-553.01	109.55	394.65	-536.32	126.77	310.82	-603.33	66.86	339.05	-588.22	38.217	308.76	-593.04	35.231	373.2	-419.55	54.105	423.2	-392.28	75.588	308.43	-332.44	101.72	357.43	-791.74	707.69	181.93	-752.79	616.56	230.73	-824.04	623.75	197	-724.33	705.87	209.7	-870.44	533.91	215.43	-828.13	527.43	331.4	-1032.4	366.57	235.93	-1013.9	280.07	236.38	-1077	310.78	255.92	-973.92	337.09	221.98	-1117.3	168.57	259.3	-1095.3	183.04	345.07	-1203.7	173.32	304.02	-1214.3	150.66	337.95	-1211.8	147.47	276.07	-1064.3	48.492	247.56	-1051	51.634	367.18	-981.91	40.242	318.19	-847.78	1530.4	340.49	-896.73	1256.1	336.09
164	0.67917	-648.02	1276.4	352.65	-789.85	1476.8	518.19	-785.45	1480.4	166.55	-742.07	1797.9	344.88	-691.41	1039.9	471.86	-681.95	1035.5	219.29	NaN	NaN	NaN	-887.97	1059.7	296.13	-743.52	961.43	520.02	-790.41	964.07	164.15	-783.91	1110.7	503.2	-754.53	1108.9	182.83	-904.31	1022.5	338.62	-683.14	720.05	497.06	-606.92	657.82	458.21	-672.18	634.04	470.42	-612.36	746.42	482.18	-619.61	537.42	454.91	-619.54	546.65	326.06	-618.89	305.95	441.69	-546.81	255.03	420.29	-608.6	230.2	423.53	-559.22	329.18	436.72	-551.47	109.17	394.88	-534.83	126.27	310.95	-602.46	67.393	339.24	-587.82	38.57	308.85	-592.62	35.555	373.31	-418.79	52.215	423.03	-391.32	73.357	308.21	-330.97	98.602	357.12	-783.9	707.36	181.31	-744.08	616.34	229.55	-815.49	623.12	196.09	-716.34	705.95	208.83	-861.46	533.29	214.28	-818.32	526.22	329.98	-1025.2	368.22	235	-1007.9	281.5	235.04	-1070.5	313.04	254.97	-967.12	338	220.64	-1112.5	171.19	258.09	-1090.4	185.51	343.79	-1198.3	178.44	302.86	-1209.5	156.5	337.03	-1207.3	152.71	275.14	-1063.1	49.186	247.34	-1049.9	52.776	366.85	-981.52	39.914	318.18	-842.37	1530.6	340.96	-890.97	1256.2	336.51
